<svg viewBox="0 0 330 200" xmlns="http://www.w3.org/2000/svg"><g><g><g><g><g><line x1="94" y1="178" x2="89" y2="178" style="visibility: inherit;" fill="rgb(0, 0, 0)" stroke="rgb(204, 204, 204)" stroke-width="1px"></line><line x1="94" y1="155.75" x2="89" y2="155.75" style="visibility: inherit;" fill="rgb(0, 0, 0)" stroke="rgb(204, 204, 204)" stroke-width="1px"></line><line x1="94" y1="133.5" x2="89" y2="133.5" style="visibility: inherit;" fill="rgb(0, 0, 0)" stroke="rgb(204, 204, 204)" stroke-width="1px"></line><line x1="94" y1="111.25" x2="89" y2="111.25" style="visibility: inherit;" fill="rgb(0, 0, 0)" stroke="rgb(204, 204, 204)" stroke-width="1px"></line><line x1="94" y1="89" x2="89" y2="89" style="visibility: inherit;" fill="rgb(0, 0, 0)" stroke="rgb(204, 204, 204)" stroke-width="1px"></line><line x1="94" y1="66.75" x2="89" y2="66.75" style="visibility: inherit;" fill="rgb(0, 0, 0)" stroke="rgb(204, 204, 204)" stroke-width="1px"></line><line x1="94" y1="44.5" x2="89" y2="44.5" style="visibility: inherit;" fill="rgb(0, 0, 0)" stroke="rgb(204, 204, 204)" stroke-width="1px"></line><line x1="94" y1="22.25" x2="89" y2="22.25" style="visibility: inherit;" fill="rgb(0, 0, 0)" stroke="rgb(204, 204, 204)" stroke-width="1px"></line><line x1="94" y1="0" x2="89" y2="0" style="visibility: inherit;" fill="rgb(0, 0, 0)" stroke="rgb(204, 204, 204)" stroke-width="1px"></line></g><g transform="translate(84, 0)"><text x="0" y="178" dx="0em" dy="0.3em" style="text-anchor: end; visibility: hidden; font-family: &quot;Helvetica Neue&quot;, sans-serif; font-size: 12px; font-weight: 200;" fill="rgb(50, 49, 63)" stroke="none" stroke-width="1px">-3.5e+5</text><text x="0" y="155.75" dx="0em" dy="0.3em" style="text-anchor: end; visibility: inherit; font-family: &quot;Helvetica Neue&quot;, sans-serif; font-size: 12px; font-weight: 200;" fill="rgb(50, 49, 63)" stroke="none" stroke-width="1px">-3e+5</text><text x="0" y="133.5" dx="0em" dy="0.3em" style="text-anchor: end; visibility: hidden; font-family: &quot;Helvetica Neue&quot;, sans-serif; font-size: 12px; font-weight: 200;" fill="rgb(50, 49, 63)" stroke="none" stroke-width="1px">-2.5e+5</text><text x="0" y="111.25" dx="0em" dy="0.3em" style="text-anchor: end; visibility: inherit; font-family: &quot;Helvetica Neue&quot;, sans-serif; font-size: 12px; font-weight: 200;" fill="rgb(50, 49, 63)" stroke="none" stroke-width="1px">-2e+5</text><text x="0" y="89" dx="0em" dy="0.3em" style="text-anchor: end; visibility: hidden; font-family: &quot;Helvetica Neue&quot;, sans-serif; font-size: 12px; font-weight: 200;" fill="rgb(50, 49, 63)" stroke="none" stroke-width="1px">-1.5e+5</text><text x="0" y="66.75" dx="0em" dy="0.3em" style="text-anchor: end; visibility: inherit; font-family: &quot;Helvetica Neue&quot;, sans-serif; font-size: 12px; font-weight: 200;" fill="rgb(50, 49, 63)" stroke="none" stroke-width="1px">-1e+5</text><text x="0" y="44.5" dx="0em" dy="0.3em" style="text-anchor: end; visibility: hidden; font-family: &quot;Helvetica Neue&quot;, sans-serif; font-size: 12px; font-weight: 200;" fill="rgb(50, 49, 63)" stroke="none" stroke-width="1px">-5e+4</text><text x="0" y="22.25" dx="0em" dy="0.3em" style="text-anchor: end; visibility: inherit; font-family: &quot;Helvetica Neue&quot;, sans-serif; font-size: 12px; font-weight: 200;" fill="rgb(50, 49, 63)" stroke="none" stroke-width="1px">0</text><text x="0" y="0" dx="0em" dy="0.3em" style="text-anchor: end; visibility: hidden; font-family: &quot;Helvetica Neue&quot;, sans-serif; font-size: 12px; font-weight: 200;" fill="rgb(50, 49, 63)" stroke="none" stroke-width="1px">5e+4</text></g><line x1="94" y1="0" x2="94" y2="178" fill="rgb(0, 0, 0)" stroke="rgb(204, 204, 204)" stroke-width="1px"></line></g></g><g transform="translate(94, 0)" clip-path="url(#clip_0)"><clipPath id="clip_0"><rect width="236" height="178"></rect></clipPath><g><g><g><line x1="0" y1="0" x2="0" y2="178" fill="rgb(0, 0, 0)" stroke="rgb(60, 60, 60)" stroke-width="1px" opacity="0.25"></line><line x1="19.666666666666664" y1="0" x2="19.666666666666664" y2="178" fill="rgb(0, 0, 0)" stroke="rgb(60, 60, 60)" stroke-width="1px" opacity="0.25"></line><line x1="39.33333333333333" y1="0" x2="39.33333333333333" y2="178" fill="rgb(0, 0, 0)" stroke="rgb(60, 60, 60)" stroke-width="1px" opacity="0.25"></line><line x1="59" y1="0" x2="59" y2="178" fill="rgb(0, 0, 0)" stroke="rgb(60, 60, 60)" stroke-width="1px" opacity="0.25"></line><line x1="78.66666666666666" y1="0" x2="78.66666666666666" y2="178" fill="rgb(0, 0, 0)" stroke="rgb(60, 60, 60)" stroke-width="1px" opacity="0.25"></line><line x1="98.33333333333334" y1="0" x2="98.33333333333334" y2="178" fill="rgb(0, 0, 0)" stroke="rgb(60, 60, 60)" stroke-width="1px" opacity="0.25"></line><line x1="118" y1="0" x2="118" y2="178" fill="rgb(0, 0, 0)" stroke="rgb(60, 60, 60)" stroke-width="1px" opacity="0.25"></line><line x1="137.66666666666669" y1="0" x2="137.66666666666669" y2="178" fill="rgb(0, 0, 0)" stroke="rgb(60, 60, 60)" stroke-width="1px" opacity="0.25"></line><line x1="157.33333333333331" y1="0" x2="157.33333333333331" y2="178" fill="rgb(0, 0, 0)" stroke="rgb(60, 60, 60)" stroke-width="1px" opacity="0.25"></line><line x1="177" y1="0" x2="177" y2="178" fill="rgb(0, 0, 0)" stroke="rgb(60, 60, 60)" stroke-width="1px" opacity="0.25"></line><line x1="196.66666666666669" y1="0" x2="196.66666666666669" y2="178" fill="rgb(0, 0, 0)" stroke="rgb(60, 60, 60)" stroke-width="1px" opacity="0.25"></line><line x1="216.33333333333331" y1="0" x2="216.33333333333331" y2="178" fill="rgb(0, 0, 0)" stroke="rgb(60, 60, 60)" stroke-width="1px" opacity="0.25"></line><line x1="236" y1="0" x2="236" y2="178" fill="rgb(0, 0, 0)" stroke="rgb(60, 60, 60)" stroke-width="1px" opacity="0.25"></line></g><g><line x1="0" y1="178" x2="236" y2="178" fill="rgb(0, 0, 0)" stroke="rgb(60, 60, 60)" stroke-width="1px" opacity="0.25"></line><line x1="0" y1="155.75" x2="236" y2="155.75" fill="rgb(0, 0, 0)" stroke="rgb(60, 60, 60)" stroke-width="1px" opacity="0.25"></line><line x1="0" y1="133.5" x2="236" y2="133.5" fill="rgb(0, 0, 0)" stroke="rgb(60, 60, 60)" stroke-width="1px" opacity="0.25"></line><line x1="0" y1="111.25" x2="236" y2="111.25" fill="rgb(0, 0, 0)" stroke="rgb(60, 60, 60)" stroke-width="1px" opacity="0.25"></line><line x1="0" y1="89" x2="236" y2="89" fill="rgb(0, 0, 0)" stroke="rgb(60, 60, 60)" stroke-width="1px" opacity="0.25"></line><line x1="0" y1="66.75" x2="236" y2="66.75" fill="rgb(0, 0, 0)" stroke="rgb(60, 60, 60)" stroke-width="1px" opacity="0.25"></line><line x1="0" y1="44.5" x2="236" y2="44.5" fill="rgb(0, 0, 0)" stroke="rgb(60, 60, 60)" stroke-width="1px" opacity="0.25"></line><line x1="0" y1="22.25" x2="236" y2="22.25" fill="rgb(0, 0, 0)" stroke="rgb(60, 60, 60)" stroke-width="1px" opacity="0.25"></line><line x1="0" y1="0" x2="236" y2="0" fill="rgb(0, 0, 0)" stroke="rgb(60, 60, 60)" stroke-width="1px" opacity="0.25"></line></g></g></g><g><g><line x1="0" y1="22.25" x2="236" y2="22.25" fill="rgb(0, 0, 0)" stroke="rgb(153, 153, 153)" stroke-width="1.5px"></line></g></g><g><g><line x1="19.666666666666664" y1="0" x2="19.666666666666664" y2="178" fill="rgb(0, 0, 0)" stroke="rgb(153, 153, 153)" stroke-width="1.5px"></line></g></g><g><g><g><g><g><path style="fill: none;" stroke="rgb(255, 112, 67)" stroke-width="2px" d="M19.686333333333334,22.256049507331852L20.669666666666668,22.45015202434064L21.653,22.65690582450165L22.636333333333333,22.89192187011031L23.619666666666667,23.151463115731985L24.602999999999998,23.463400083006206L25.586333333333332,23.78839134029826L26.569666666666667,24.12056766708372L27.553,24.52884798454741L28.536333333333335,24.94010634086891L29.519666666666666,25.338291184756173L30.503,25.73902002202695L31.48633333333333,26.128817506408353L32.46966666666667,26.627873764797755L33.452999999999996,27.1511118361569L34.43633333333333,27.685263205728717L35.41966666666667,28.202979633658884L36.403,28.72612385015242L37.38633333333333,29.229410685396203L38.36966666666667,29.68825955466687L39.353,30.591489859418743L40.33633333333333,31.057398973807636L41.31966666666667,31.654921950760382L42.303,32.10959732488155L43.28633333333333,32.84234265783249L44.269666666666666,33.66735709577338L45.253,34.24558202895918L46.23633333333333,34.3762930632694L47.21966666666667,35.06691331117517L48.202999999999996,36.33148440689379L49.18633333333333,37.13510096948147L50.16966666666667,37.707305470978724L51.153,38.51698677437611L52.13633333333333,39.36230826072014L53.11966666666667,39.77712886981311L54.103,39.909892917007255L55.08633333333333,40.95860768638198L56.06966666666667,41.78300589614034L57.053,42.17142053854957L58.03633333333333,42.68864076132115L59.019666666666666,44.076078012593L60.00299999999999,44.93580704234449L60.986333333333334,44.658690615951684L61.96966666666667,45.13799825246656L62.952999999999996,46.03977461563616L63.93633333333333,47.288062246022065L64.91966666666667,48.01320298826536L65.903,49.32520512892617L66.88633333333333,51.095150671129545L67.86966666666667,48.69653794953334L68.85300000000001,50.50528347285376L69.83633333333333,51.42396172433993L70.81966666666666,52.85453734710646L71.80300000000001,53.8437474863899L72.78633333333333,55.39683680433491L73.76966666666667,57.657855332601784L74.753,58.61900190268629L75.73633333333333,59.536730891611896L76.71966666666667,60.05037487871719L77.703,60.01299652098031L78.68633333333332,62.34509788133825L79.66966666666667,62.316108947552976L80.653,61.83207329040677L81.63633333333333,61.44142816174406L82.61966666666667,62.87064855329645L83.60300000000001,63.93739197572786L84.58633333333333,65.81291934168671L85.56966666666666,65.25495373001205L86.55300000000001,62.05645751925721L87.53633333333333,65.99725746467934L88.51966666666667,67.8326838850576L89.503,68.88328344040956L90.48633333333333,71.25923911112076L91.46966666666667,73.00938021667245L92.453,72.29197077062845L93.43633333333332,73.40881791550207L94.41966666666667,72.47936813992624L95.403,72.00126705583074L96.38633333333333,70.43724528037345L97.36966666666667,71.97492068384906L98.35300000000001,72.98827394155944L99.33633333333333,73.77878317743567L100.31966666666666,76.7352069377114L101.30300000000001,74.32833764700185L102.28633333333333,79.3250890569511L103.26966666666667,82.20767074667067L104.253,83.1406196980024L105.23633333333333,83.56075363130144L106.21966666666667,82.53464380378087L107.203,80.26108868851853L108.18633333333332,85.48416268186112L109.16966666666667,85.67069142161665L110.153,82.51730157172001L111.13633333333333,83.827637849282L112.11966666666667,86.6840658345692L113.10300000000001,86.68513431324152L114.08633333333333,83.40335249419492L115.06966666666666,87.59503862151695L116.05300000000001,94.82983711041017L117.03633333333333,94.10386276624611L118.01966666666667,93.77294215974767L119.003,90.0717280458486L119.98633333333332,87.53377020250916L120.96966666666665,92.3340422152555L121.953,95.0602270791533L122.93633333333334,97.054747059992L123.91966666666667,99.0552736734952L124.903,99.41189745409713L125.88633333333333,96.47410359745828L126.86966666666666,96.75147137722496L127.853,95.83252870133498L128.83633333333336,97.01712756455099L129.81966666666668,97.4581111949806L130.803,96.29451002948835L131.78633333333335,95.33294270519302L132.76966666666667,94.1953968731158L133.753,97.45578074886949L134.73633333333333,104.5623965743217L135.71966666666665,109.28656003834301L136.703,107.40926739800581L137.68633333333335,109.8913634388035L138.66966666666667,108.57651475078208L139.653,110.24215600671926L140.63633333333334,110.11941763528155L141.61966666666666,109.82860904991894L142.60299999999998,107.36886255495136L143.58633333333336,110.98175653297082L144.56966666666668,109.57377051353251L145.553,108.4030024956195L146.53633333333335,110.1603959973717L147.51966666666667,111.84491594217302L148.503,112.38887297155381L149.48633333333333,118.22698381418229L150.46966666666665,116.68333060100936L151.453,117.7557922043556L152.43633333333335,117.26238594761338L153.41966666666667,114.50076963106802L154.403,114.72561584114081L155.38633333333334,113.34240050468448L156.36966666666666,110.56980989656068L157.35299999999998,113.47069840668641L158.33633333333336,117.43588663776185L159.31966666666668,118.00307917015712L160.303,123.40492203334428L161.28633333333335,117.42591700125658L162.26966666666667,123.09876373200396L163.253,122.25000448920238L164.23633333333333,118.41875997477142L165.21966666666665,121.06007507861284L166.203,123.5814250471677L167.18633333333335,123.50021999705062L168.16966666666667,126.62334293573036L169.153,125.65464569893822L170.13633333333334,121.66946104436293L171.11966666666666,118.74153006411775L172.10299999999998,125.36442463222065L173.08633333333336,123.07452215433241L174.06966666666668,124.06749673009944L175.053,120.81576141305966L176.03633333333335,118.94050928533579L177.01966666666667,122.50671210245147L178.003,124.42626448022088L178.98633333333333,126.40784581313252L179.96966666666665,128.2634546753795L180.953,128.21737805522773L181.93633333333335,131.9430317393866L182.91966666666667,137.26632623113198L183.903,136.7011904574292L184.88633333333334,142.64037202445752L185.86966666666666,133.93113696467452L186.85299999999998,146.32478130380468L187.83633333333336,136.63389412603283L188.81966666666668,125.3960105381197L189.803,133.00326769787182L190.78633333333335,140.84016868122308L191.76966666666667,139.70153964623387L192.753,135.0958374127403L193.73633333333333,140.06982576014417L194.71966666666665,131.1245336123365L195.703,139.7451072924019L196.68633333333335,125.57871937544114L197.66966666666667,141.5995436252647L198.653,132.5844160501588L199.63633333333334,137.1499477550953L200.61966666666666,132.94115359055718L201.60299999999998,125.0472329980843L202.58633333333336,127.68562645510058L203.56966666666668,129.22671571681033L204.553,130.5865931800862L205.53633333333335,126.11623672055174L206.51966666666667,119.90807925108103L207.503,134.17091080064864L208.48633333333333,128.58643463663918L209.46966666666665,125.5258861569835L210.453,116.6202759441901L211.43633333333335,134.83121594151405L212.41966666666667,137.75414900240844L213.403,137.97710883894507L214.38633333333334,130.08880577211704L215.36966666666666,141.89425171327022" fill="none"></path></g></g></g></g><g opacity="0.2"><g><g><g><path style="fill: none;" stroke="rgb(255, 112, 67)" stroke-width="2px" d="M19.686333333333334,22.256049507331852L20.669666666666668,22.566613534545894L21.653,22.85538947265627L22.636333333333333,23.168300739746087L23.619666666666667,23.490320166015607L24.602999999999998,23.894921206054676L25.586333333333332,24.253134038085932L26.569666666666667,24.604883940429687L27.553,25.13098214843751L28.536333333333335,25.550777070312506L29.519666666666666,25.93195694335938L30.503,26.337932529296893L31.48633333333333,26.712240976562498L32.46966666666667,27.375480449218742L33.452999999999996,27.935353896484372L34.43633333333333,28.48611353515625L35.41966666666667,28.9793351953125L36.403,29.51070734863282L37.38633333333333,29.984264267578112L38.36966666666667,30.376490917968738L39.353,31.946285781249998L40.33633333333333,31.756247314453134L41.31966666666667,32.55119461914063L42.303,32.791605000000004L43.28633333333333,33.94145544921875L44.269666666666666,34.904875234375L45.253,35.11291794921877L46.23633333333333,34.572359414062504L47.21966666666667,36.102843046874995L48.202999999999996,38.22834035156251L49.18633333333333,38.340525546875L50.16966666666667,38.565612109374996L51.153,39.731508632812506L52.13633333333333,40.630290429687506L53.11966666666667,40.39935976562501L54.103,40.10903898437499L55.08633333333333,42.53167982421877L56.06966666666667,43.019603203125L57.053,42.7540425L58.03633333333333,43.46447109375001L59.019666666666666,46.15723388671876L60.00299999999999,46.22540058593748L60.986333333333334,44.2430159765625L61.96966666666667,45.85695970703125L62.952999999999996,47.39243916015624L63.93633333333333,49.16049369140626L64.91966666666667,49.100914101562495L65.903,51.293208339843744L66.88633333333333,53.750068984375005L67.86966666666667,45.0986188671875L68.85300000000001,53.2184017578125L69.83633333333333,52.801979101562495L70.81966666666666,55.00040078124999L71.80300000000001,55.32756269531251L72.78633333333333,57.726470781250015L73.76966666666667,61.04938312499999L74.753,60.0607217578125L75.73633333333333,60.913324375L76.71966666666667,60.820840859375L77.703,59.956928984375L78.68633333333332,65.843249921875L79.66966666666667,62.272625546875005L80.653,61.10601980468749L81.63633333333333,60.855460468749996L82.61966666666667,65.01447914062501L83.60300000000001,65.537507109375L84.58633333333333,68.626210390625L85.56966666666666,64.4180053125L86.55300000000001,57.25871320312501L87.53633333333333,71.9084573828125L88.51966666666667,70.58582351562501L89.503,70.45918277343749L90.48633333333333,74.8231726171875L91.46966666666667,75.634591875L92.453,71.2158566015625L93.43633333333332,75.08408863281251L94.41966666666667,71.0851934765625L95.403,71.28411542968749L96.38633333333333,68.0912126171875L97.36966666666667,74.2814337890625L98.35300000000001,74.508303828125L99.33633333333333,74.96454703124999L100.31966666666666,81.169842578125L101.30300000000001,70.7180337109375L102.28633333333333,86.82021617187499L103.26966666666667,86.53154328125L104.253,84.540043125L105.23633333333333,84.19095453125L106.21966666666667,80.9954790625L107.203,76.850756015625L108.18633333333332,93.318773671875L109.16966666666667,85.95048453125L110.153,77.787216796875L111.13633333333333,85.793142265625L112.11966666666667,90.9687078125L113.10300000000001,86.68673703124999L114.08633333333333,78.48067976562501L115.06966666666666,93.8825678125L116.05300000000001,105.68203484375L117.03633333333333,93.01490125000001L118.01966666666667,93.27656125L119.003,84.519906875L119.98633333333332,83.7268334375L120.96966666666665,99.534450234375L121.953,99.149504375L122.93633333333334,100.04652703125001L123.91966666666667,102.05606359375L124.903,99.946833125L125.88633333333333,92.0674128125L126.86966666666666,97.167523046875L127.853,94.45411468750001L128.83633333333336,98.794025859375L129.81966666666668,98.119586640625L130.803,94.54910828125L131.78633333333335,93.89059171875L132.76966666666667,92.489078125L133.753,102.3463565625L134.73633333333333,115.22232031249999L135.71966666666665,116.372805234375L136.703,104.5933284375L137.68633333333335,113.6145075L138.66966666666667,106.60424171875L139.653,112.740617890625L140.63633333333334,109.935310078125L141.61966666666666,109.39239617187499L142.60299999999998,103.67924281250001L143.58633333333336,116.4010975L144.56966666666668,107.461791484375L145.553,106.64685046875L146.53633333333335,112.79648625L147.51966666666667,114.371695859375L148.503,113.20480851562499L149.48633333333333,126.984150078125L150.46966666666665,114.36785078125L151.453,119.36448460937501L152.43633333333335,116.5222765625L153.41966666666667,110.35834515625L154.403,115.06288515624999L155.38633333333334,111.2675775L156.36966666666666,106.410923984375L157.35299999999998,117.822031171875L158.33633333333336,123.38366898437499L159.31966666666668,118.85386796875L160.303,131.507686328125L161.28633333333335,108.457409453125L162.26966666666667,131.608033828125L163.253,120.97686562499999L164.23633333333333,112.67189320312501L165.21966666666665,125.02204773437501L166.203,127.36345L167.18633333333335,123.378412421875L168.16966666666667,131.30802734374998L169.153,124.20159984375L170.13633333333334,115.6916840625L171.11966666666666,114.34963359375L172.10299999999998,135.298766484375L173.08633333333336,119.6396684375L174.06966666666668,125.55695859375001L175.053,115.9381584375L176.03633333333335,116.12763109375001L177.01966666666667,127.85601632812501L178.003,127.305593046875L178.98633333333333,129.3802178125L179.96966666666665,131.04686796875L180.953,128.148263125L181.93633333333335,137.531512265625L182.91966666666667,145.25126796875L183.903,135.85348679687502L184.88633333333334,151.549144375L185.86966666666666,120.867284375L186.85299999999998,164.9152478125L187.83633333333336,122.09756335937499L188.81966666666668,108.53918515625L189.803,144.4141534375L190.78633333333335,152.59552015625L191.76966666666667,137.99359609375L192.753,128.1872840625L193.73633333333333,147.53080828125L194.71966666666665,117.706595390625L195.703,152.6759678125L196.68633333333335,104.3291375L197.66966666666667,165.63078000000002L198.653,119.0617246875L199.63633333333334,143.9982453125L200.61966666666666,126.62796234375L201.60299999999998,113.206352109375L202.58633333333336,131.643216640625L203.56966666666668,131.538349609375L204.553,132.626409375L205.53633333333335,119.41070203125L206.51966666666667,110.595843046875L207.503,155.565158125L208.48633333333333,120.209720390625L209.46966666666665,120.93506343749999L210.453,103.261860625L211.43633333333335,162.1476259375L212.41966666666667,142.13854859375L213.403,138.31154859375L214.38633333333334,118.256351171875L215.36966666666666,159.602420625" fill="none"></path></g></g></g></g></g></g><g transform="translate(94, 178)" clip-path="url(#clip_1)"><clipPath id="clip_1"><rect width="236" height="22"></rect></clipPath><g><g><line x1="0" y1="0" x2="0" y2="5" style="visibility: inherit;" fill="rgb(0, 0, 0)" stroke="rgb(204, 204, 204)" stroke-width="1px"></line><line x1="19.666666666666664" y1="0" x2="19.666666666666664" y2="5" style="visibility: inherit;" fill="rgb(0, 0, 0)" stroke="rgb(204, 204, 204)" stroke-width="1px"></line><line x1="39.33333333333333" y1="0" x2="39.33333333333333" y2="5" style="visibility: inherit;" fill="rgb(0, 0, 0)" stroke="rgb(204, 204, 204)" stroke-width="1px"></line><line x1="59" y1="0" x2="59" y2="5" style="visibility: inherit;" fill="rgb(0, 0, 0)" stroke="rgb(204, 204, 204)" stroke-width="1px"></line><line x1="78.66666666666666" y1="0" x2="78.66666666666666" y2="5" style="visibility: inherit;" fill="rgb(0, 0, 0)" stroke="rgb(204, 204, 204)" stroke-width="1px"></line><line x1="98.33333333333334" y1="0" x2="98.33333333333334" y2="5" style="visibility: inherit;" fill="rgb(0, 0, 0)" stroke="rgb(204, 204, 204)" stroke-width="1px"></line><line x1="118" y1="0" x2="118" y2="5" style="visibility: inherit;" fill="rgb(0, 0, 0)" stroke="rgb(204, 204, 204)" stroke-width="1px"></line><line x1="137.66666666666669" y1="0" x2="137.66666666666669" y2="5" style="visibility: inherit;" fill="rgb(0, 0, 0)" stroke="rgb(204, 204, 204)" stroke-width="1px"></line><line x1="157.33333333333331" y1="0" x2="157.33333333333331" y2="5" style="visibility: inherit;" fill="rgb(0, 0, 0)" stroke="rgb(204, 204, 204)" stroke-width="1px"></line><line x1="177" y1="0" x2="177" y2="5" style="visibility: inherit;" fill="rgb(0, 0, 0)" stroke="rgb(204, 204, 204)" stroke-width="1px"></line><line x1="196.66666666666669" y1="0" x2="196.66666666666669" y2="5" style="visibility: inherit;" fill="rgb(0, 0, 0)" stroke="rgb(204, 204, 204)" stroke-width="1px"></line><line x1="216.33333333333331" y1="0" x2="216.33333333333331" y2="5" style="visibility: inherit;" fill="rgb(0, 0, 0)" stroke="rgb(204, 204, 204)" stroke-width="1px"></line><line x1="236" y1="0" x2="236" y2="5" style="visibility: inherit;" fill="rgb(0, 0, 0)" stroke="rgb(204, 204, 204)" stroke-width="1px"></line></g><g transform="translate(0, 8)"><text x="0" y="0" dx="0em" dy="0.95em" style="text-anchor: middle; visibility: hidden; font-family: &quot;Helvetica Neue&quot;, sans-serif; font-size: 12px; font-weight: 200;" fill="rgb(50, 49, 63)" stroke="none" stroke-width="1px">-1k</text><text x="19.666666666666664" y="0" dx="0em" dy="0.95em" style="text-anchor: middle; visibility: inherit; font-family: &quot;Helvetica Neue&quot;, sans-serif; font-size: 12px; font-weight: 200;" fill="rgb(50, 49, 63)" stroke="none" stroke-width="1px">0</text><text x="39.33333333333333" y="0" dx="0em" dy="0.95em" style="text-anchor: middle; visibility: hidden; font-family: &quot;Helvetica Neue&quot;, sans-serif; font-size: 12px; font-weight: 200;" fill="rgb(50, 49, 63)" stroke="none" stroke-width="1px">1k</text><text x="59" y="0" dx="0em" dy="0.95em" style="text-anchor: middle; visibility: inherit; font-family: &quot;Helvetica Neue&quot;, sans-serif; font-size: 12px; font-weight: 200;" fill="rgb(50, 49, 63)" stroke="none" stroke-width="1px">2k</text><text x="78.66666666666666" y="0" dx="0em" dy="0.95em" style="text-anchor: middle; visibility: hidden; font-family: &quot;Helvetica Neue&quot;, sans-serif; font-size: 12px; font-weight: 200;" fill="rgb(50, 49, 63)" stroke="none" stroke-width="1px">3k</text><text x="98.33333333333334" y="0" dx="0em" dy="0.95em" style="text-anchor: middle; visibility: inherit; font-family: &quot;Helvetica Neue&quot;, sans-serif; font-size: 12px; font-weight: 200;" fill="rgb(50, 49, 63)" stroke="none" stroke-width="1px">4k</text><text x="118" y="0" dx="0em" dy="0.95em" style="text-anchor: middle; visibility: hidden; font-family: &quot;Helvetica Neue&quot;, sans-serif; font-size: 12px; font-weight: 200;" fill="rgb(50, 49, 63)" stroke="none" stroke-width="1px">5k</text><text x="137.66666666666669" y="0" dx="0em" dy="0.95em" style="text-anchor: middle; visibility: inherit; font-family: &quot;Helvetica Neue&quot;, sans-serif; font-size: 12px; font-weight: 200;" fill="rgb(50, 49, 63)" stroke="none" stroke-width="1px">6k</text><text x="157.33333333333331" y="0" dx="0em" dy="0.95em" style="text-anchor: middle; visibility: hidden; font-family: &quot;Helvetica Neue&quot;, sans-serif; font-size: 12px; font-weight: 200;" fill="rgb(50, 49, 63)" stroke="none" stroke-width="1px">7k</text><text x="177" y="0" dx="0em" dy="0.95em" style="text-anchor: middle; visibility: inherit; font-family: &quot;Helvetica Neue&quot;, sans-serif; font-size: 12px; font-weight: 200;" fill="rgb(50, 49, 63)" stroke="none" stroke-width="1px">8k</text><text x="196.66666666666669" y="0" dx="0em" dy="0.95em" style="text-anchor: middle; visibility: hidden; font-family: &quot;Helvetica Neue&quot;, sans-serif; font-size: 12px; font-weight: 200;" fill="rgb(50, 49, 63)" stroke="none" stroke-width="1px">9k</text><text x="216.33333333333331" y="0" dx="0em" dy="0.95em" style="text-anchor: middle; visibility: inherit; font-family: &quot;Helvetica Neue&quot;, sans-serif; font-size: 12px; font-weight: 200;" fill="rgb(50, 49, 63)" stroke="none" stroke-width="1px">10k</text><text x="236" y="0" dx="0em" dy="0.95em" style="text-anchor: middle; visibility: hidden; font-family: &quot;Helvetica Neue&quot;, sans-serif; font-size: 12px; font-weight: 200;" fill="rgb(50, 49, 63)" stroke="none" stroke-width="1px">11k</text></g><line x1="0" y1="0" x2="236" y2="0" fill="rgb(0, 0, 0)" stroke="rgb(204, 204, 204)" stroke-width="1px"></line></g></g></g></g></svg>