<svg viewBox="0 0 330 200" xmlns="http://www.w3.org/2000/svg"><g><g><g><g><g><line x1="82" y1="178" x2="77" y2="178" style="visibility: inherit;" fill="rgb(0, 0, 0)" stroke="rgb(204, 204, 204)" stroke-width="1px"></line><line x1="82" y1="164.30769230769232" x2="77" y2="164.30769230769232" style="visibility: inherit;" fill="rgb(0, 0, 0)" stroke="rgb(204, 204, 204)" stroke-width="1px"></line><line x1="82" y1="150.6153846153846" x2="77" y2="150.6153846153846" style="visibility: inherit;" fill="rgb(0, 0, 0)" stroke="rgb(204, 204, 204)" stroke-width="1px"></line><line x1="82" y1="136.9230769230769" x2="77" y2="136.9230769230769" style="visibility: inherit;" fill="rgb(0, 0, 0)" stroke="rgb(204, 204, 204)" stroke-width="1px"></line><line x1="82" y1="123.23076923076923" x2="77" y2="123.23076923076923" style="visibility: inherit;" fill="rgb(0, 0, 0)" stroke="rgb(204, 204, 204)" stroke-width="1px"></line><line x1="82" y1="109.53846153846153" x2="77" y2="109.53846153846153" style="visibility: inherit;" fill="rgb(0, 0, 0)" stroke="rgb(204, 204, 204)" stroke-width="1px"></line><line x1="82" y1="95.84615384615384" x2="77" y2="95.84615384615384" style="visibility: inherit;" fill="rgb(0, 0, 0)" stroke="rgb(204, 204, 204)" stroke-width="1px"></line><line x1="82" y1="82.15384615384616" x2="77" y2="82.15384615384616" style="visibility: inherit;" fill="rgb(0, 0, 0)" stroke="rgb(204, 204, 204)" stroke-width="1px"></line><line x1="82" y1="68.46153846153845" x2="77" y2="68.46153846153845" style="visibility: inherit;" fill="rgb(0, 0, 0)" stroke="rgb(204, 204, 204)" stroke-width="1px"></line><line x1="82" y1="54.769230769230774" x2="77" y2="54.769230769230774" style="visibility: inherit;" fill="rgb(0, 0, 0)" stroke="rgb(204, 204, 204)" stroke-width="1px"></line><line x1="82" y1="41.076923076923066" x2="77" y2="41.076923076923066" style="visibility: inherit;" fill="rgb(0, 0, 0)" stroke="rgb(204, 204, 204)" stroke-width="1px"></line><line x1="82" y1="27.384615384615387" x2="77" y2="27.384615384615387" style="visibility: inherit;" fill="rgb(0, 0, 0)" stroke="rgb(204, 204, 204)" stroke-width="1px"></line><line x1="82" y1="13.69230769230768" x2="77" y2="13.69230769230768" style="visibility: inherit;" fill="rgb(0, 0, 0)" stroke="rgb(204, 204, 204)" stroke-width="1px"></line><line x1="82" y1="0" x2="77" y2="0" style="visibility: inherit;" fill="rgb(0, 0, 0)" stroke="rgb(204, 204, 204)" stroke-width="1px"></line></g><g transform="translate(72, 0)"><text x="0" y="178" dx="0em" dy="0.3em" style="text-anchor: end; visibility: hidden; font-family: &quot;Helvetica Neue&quot;, sans-serif; font-size: 12px; font-weight: 200;" fill="rgb(50, 49, 63)" stroke="none" stroke-width="1px">-2e+4</text><text x="0" y="164.30769230769232" dx="0em" dy="0.3em" style="text-anchor: end; visibility: inherit; font-family: &quot;Helvetica Neue&quot;, sans-serif; font-size: 12px; font-weight: 200;" fill="rgb(50, 49, 63)" stroke="none" stroke-width="1px">0</text><text x="0" y="150.6153846153846" dx="0em" dy="0.3em" style="text-anchor: end; visibility: hidden; font-family: &quot;Helvetica Neue&quot;, sans-serif; font-size: 12px; font-weight: 200;" fill="rgb(50, 49, 63)" stroke="none" stroke-width="1px">2e+4</text><text x="0" y="136.9230769230769" dx="0em" dy="0.3em" style="text-anchor: end; visibility: inherit; font-family: &quot;Helvetica Neue&quot;, sans-serif; font-size: 12px; font-weight: 200;" fill="rgb(50, 49, 63)" stroke="none" stroke-width="1px">4e+4</text><text x="0" y="123.23076923076923" dx="0em" dy="0.3em" style="text-anchor: end; visibility: hidden; font-family: &quot;Helvetica Neue&quot;, sans-serif; font-size: 12px; font-weight: 200;" fill="rgb(50, 49, 63)" stroke="none" stroke-width="1px">6e+4</text><text x="0" y="109.53846153846153" dx="0em" dy="0.3em" style="text-anchor: end; visibility: inherit; font-family: &quot;Helvetica Neue&quot;, sans-serif; font-size: 12px; font-weight: 200;" fill="rgb(50, 49, 63)" stroke="none" stroke-width="1px">8e+4</text><text x="0" y="95.84615384615384" dx="0em" dy="0.3em" style="text-anchor: end; visibility: hidden; font-family: &quot;Helvetica Neue&quot;, sans-serif; font-size: 12px; font-weight: 200;" fill="rgb(50, 49, 63)" stroke="none" stroke-width="1px">1e+5</text><text x="0" y="82.15384615384616" dx="0em" dy="0.3em" style="text-anchor: end; visibility: inherit; font-family: &quot;Helvetica Neue&quot;, sans-serif; font-size: 12px; font-weight: 200;" fill="rgb(50, 49, 63)" stroke="none" stroke-width="1px">1.2e+5</text><text x="0" y="68.46153846153845" dx="0em" dy="0.3em" style="text-anchor: end; visibility: hidden; font-family: &quot;Helvetica Neue&quot;, sans-serif; font-size: 12px; font-weight: 200;" fill="rgb(50, 49, 63)" stroke="none" stroke-width="1px">1.4e+5</text><text x="0" y="54.769230769230774" dx="0em" dy="0.3em" style="text-anchor: end; visibility: inherit; font-family: &quot;Helvetica Neue&quot;, sans-serif; font-size: 12px; font-weight: 200;" fill="rgb(50, 49, 63)" stroke="none" stroke-width="1px">1.6e+5</text><text x="0" y="41.076923076923066" dx="0em" dy="0.3em" style="text-anchor: end; visibility: hidden; font-family: &quot;Helvetica Neue&quot;, sans-serif; font-size: 12px; font-weight: 200;" fill="rgb(50, 49, 63)" stroke="none" stroke-width="1px">1.8e+5</text><text x="0" y="27.384615384615387" dx="0em" dy="0.3em" style="text-anchor: end; visibility: inherit; font-family: &quot;Helvetica Neue&quot;, sans-serif; font-size: 12px; font-weight: 200;" fill="rgb(50, 49, 63)" stroke="none" stroke-width="1px">2e+5</text><text x="0" y="13.69230769230768" dx="0em" dy="0.3em" style="text-anchor: end; visibility: hidden; font-family: &quot;Helvetica Neue&quot;, sans-serif; font-size: 12px; font-weight: 200;" fill="rgb(50, 49, 63)" stroke="none" stroke-width="1px">2.2e+5</text><text x="0" y="0" dx="0em" dy="0.3em" style="text-anchor: end; visibility: hidden; font-family: &quot;Helvetica Neue&quot;, sans-serif; font-size: 12px; font-weight: 200;" fill="rgb(50, 49, 63)" stroke="none" stroke-width="1px">2.4e+5</text></g><line x1="82" y1="0" x2="82" y2="178" fill="rgb(0, 0, 0)" stroke="rgb(204, 204, 204)" stroke-width="1px"></line></g></g><g transform="translate(82, 0)" clip-path="url(#clip_0)"><clipPath id="clip_0"><rect width="248" height="178"></rect></clipPath><g><g><g><line x1="0" y1="0" x2="0" y2="178" fill="rgb(0, 0, 0)" stroke="rgb(60, 60, 60)" stroke-width="1px" opacity="0.25"></line><line x1="20.666666666666664" y1="0" x2="20.666666666666664" y2="178" fill="rgb(0, 0, 0)" stroke="rgb(60, 60, 60)" stroke-width="1px" opacity="0.25"></line><line x1="41.33333333333333" y1="0" x2="41.33333333333333" y2="178" fill="rgb(0, 0, 0)" stroke="rgb(60, 60, 60)" stroke-width="1px" opacity="0.25"></line><line x1="62" y1="0" x2="62" y2="178" fill="rgb(0, 0, 0)" stroke="rgb(60, 60, 60)" stroke-width="1px" opacity="0.25"></line><line x1="82.66666666666666" y1="0" x2="82.66666666666666" y2="178" fill="rgb(0, 0, 0)" stroke="rgb(60, 60, 60)" stroke-width="1px" opacity="0.25"></line><line x1="103.33333333333334" y1="0" x2="103.33333333333334" y2="178" fill="rgb(0, 0, 0)" stroke="rgb(60, 60, 60)" stroke-width="1px" opacity="0.25"></line><line x1="124" y1="0" x2="124" y2="178" fill="rgb(0, 0, 0)" stroke="rgb(60, 60, 60)" stroke-width="1px" opacity="0.25"></line><line x1="144.66666666666669" y1="0" x2="144.66666666666669" y2="178" fill="rgb(0, 0, 0)" stroke="rgb(60, 60, 60)" stroke-width="1px" opacity="0.25"></line><line x1="165.33333333333331" y1="0" x2="165.33333333333331" y2="178" fill="rgb(0, 0, 0)" stroke="rgb(60, 60, 60)" stroke-width="1px" opacity="0.25"></line><line x1="186" y1="0" x2="186" y2="178" fill="rgb(0, 0, 0)" stroke="rgb(60, 60, 60)" stroke-width="1px" opacity="0.25"></line><line x1="206.66666666666669" y1="0" x2="206.66666666666669" y2="178" fill="rgb(0, 0, 0)" stroke="rgb(60, 60, 60)" stroke-width="1px" opacity="0.25"></line><line x1="227.33333333333331" y1="0" x2="227.33333333333331" y2="178" fill="rgb(0, 0, 0)" stroke="rgb(60, 60, 60)" stroke-width="1px" opacity="0.25"></line><line x1="248" y1="0" x2="248" y2="178" fill="rgb(0, 0, 0)" stroke="rgb(60, 60, 60)" stroke-width="1px" opacity="0.25"></line></g><g><line x1="0" y1="178" x2="248" y2="178" fill="rgb(0, 0, 0)" stroke="rgb(60, 60, 60)" stroke-width="1px" opacity="0.25"></line><line x1="0" y1="164.30769230769232" x2="248" y2="164.30769230769232" fill="rgb(0, 0, 0)" stroke="rgb(60, 60, 60)" stroke-width="1px" opacity="0.25"></line><line x1="0" y1="150.6153846153846" x2="248" y2="150.6153846153846" fill="rgb(0, 0, 0)" stroke="rgb(60, 60, 60)" stroke-width="1px" opacity="0.25"></line><line x1="0" y1="136.9230769230769" x2="248" y2="136.9230769230769" fill="rgb(0, 0, 0)" stroke="rgb(60, 60, 60)" stroke-width="1px" opacity="0.25"></line><line x1="0" y1="123.23076923076923" x2="248" y2="123.23076923076923" fill="rgb(0, 0, 0)" stroke="rgb(60, 60, 60)" stroke-width="1px" opacity="0.25"></line><line x1="0" y1="109.53846153846153" x2="248" y2="109.53846153846153" fill="rgb(0, 0, 0)" stroke="rgb(60, 60, 60)" stroke-width="1px" opacity="0.25"></line><line x1="0" y1="95.84615384615384" x2="248" y2="95.84615384615384" fill="rgb(0, 0, 0)" stroke="rgb(60, 60, 60)" stroke-width="1px" opacity="0.25"></line><line x1="0" y1="82.15384615384616" x2="248" y2="82.15384615384616" fill="rgb(0, 0, 0)" stroke="rgb(60, 60, 60)" stroke-width="1px" opacity="0.25"></line><line x1="0" y1="68.46153846153845" x2="248" y2="68.46153846153845" fill="rgb(0, 0, 0)" stroke="rgb(60, 60, 60)" stroke-width="1px" opacity="0.25"></line><line x1="0" y1="54.769230769230774" x2="248" y2="54.769230769230774" fill="rgb(0, 0, 0)" stroke="rgb(60, 60, 60)" stroke-width="1px" opacity="0.25"></line><line x1="0" y1="41.076923076923066" x2="248" y2="41.076923076923066" fill="rgb(0, 0, 0)" stroke="rgb(60, 60, 60)" stroke-width="1px" opacity="0.25"></line><line x1="0" y1="27.384615384615387" x2="248" y2="27.384615384615387" fill="rgb(0, 0, 0)" stroke="rgb(60, 60, 60)" stroke-width="1px" opacity="0.25"></line><line x1="0" y1="13.69230769230768" x2="248" y2="13.69230769230768" fill="rgb(0, 0, 0)" stroke="rgb(60, 60, 60)" stroke-width="1px" opacity="0.25"></line><line x1="0" y1="0" x2="248" y2="0" fill="rgb(0, 0, 0)" stroke="rgb(60, 60, 60)" stroke-width="1px" opacity="0.25"></line></g></g></g><g><g><line x1="0" y1="164.30769230769232" x2="248" y2="164.30769230769232" fill="rgb(0, 0, 0)" stroke="rgb(153, 153, 153)" stroke-width="1.5px"></line></g></g><g><g><line x1="20.666666666666664" y1="0" x2="20.666666666666664" y2="178" fill="rgb(0, 0, 0)" stroke="rgb(153, 153, 153)" stroke-width="1.5px"></line></g></g><g><g><g><g><g><path stroke="rgb(255, 112, 67)" stroke-width="2px" d="M20.687333333333335,164.29614540103032L21.720666666666666,164.22315308021766L22.753999999999998,164.1402017044888L23.787333333333333,164.04222562115947L24.820666666666664,163.92854708040312L25.854,163.7993019324892L26.88733333333333,163.65481693044745L27.920666666666666,163.4952913961675L28.954,163.32219836705158L29.987333333333336,163.13466469572515L31.020666666666664,162.93446243393433L32.054,162.72299304121785L33.08733333333333,162.50110481086256L34.120666666666665,162.26830289991068L35.153999999999996,162.02686515914937L36.187333333333335,161.7738506890816L37.22066666666667,161.5107640307047L38.254,161.24038876861812L39.287333333333336,160.96085984258715L40.32066666666667,160.67014476723364L41.354,160.37182274094442L42.38733333333333,160.06826550245995L43.42066666666667,159.75256540354928L44.454,159.42851401223945L45.48733333333333,159.09566991298138L46.52066666666666,158.7549303749629L47.554,158.40608972491384L48.58733333333333,158.04931397042168L49.620666666666665,157.68564703732005L50.653999999999996,157.32061885984285L51.687333333333335,156.93738494896613L52.72066666666667,156.54686327003014L53.754,156.14858061126853L54.787333333333336,155.7445275228528L55.82066666666667,155.33048425899784L56.854,154.91315673498843L57.88733333333333,154.483088530519L58.92066666666667,154.04643332702656L59.954,153.61102178010165L60.98733333333333,153.15724014678133L62.02066666666666,152.70262867304072L63.053999999999995,152.23287226970413L64.08733333333333,151.75825319942584L65.12066666666666,151.29294440154604L66.154,150.79983393053982L67.18733333333333,150.2987531167061L68.22066666666667,149.89234331832577L69.254,149.33269719891558L70.28733333333332,148.78782691910163L71.32066666666667,148.25903413823556L72.354,147.73089693125607L73.38733333333333,147.17173938471356L74.42066666666666,146.63436247698104L75.45400000000001,146.08266773258228L76.48733333333334,145.50515832584708L77.52066666666667,144.9743467322869L78.55399999999999,144.36446607422778L79.58733333333333,143.7544525051135L80.62066666666666,143.15127861845266L81.654,142.54189545232157L82.68733333333333,141.93105664639293L83.72066666666667,141.33356413206653L84.754,140.8061782869322L85.78733333333332,140.13732924379394L86.82066666666667,139.47308793089175L87.854,138.84148295084273L88.88733333333333,138.16273437387102L89.92066666666666,137.5122285449957L90.95400000000001,136.83536965103588L91.98733333333334,136.1496477641792L93.02066666666667,135.5894198964883L94.05399999999999,134.85037953404682L95.08733333333333,134.11187110985117L96.12066666666666,133.40296199283378L97.154,132.68224242406566L98.18733333333333,131.96166462511246L99.22066666666667,131.24127351064442L100.254,130.53309605350205L101.28733333333332,129.8214063340243L102.32066666666667,129.08325620426072L103.354,128.3187038667872L104.38733333333333,127.58519138257232L105.42066666666666,126.88153478146647L106.45400000000001,126.15539619339913L107.48733333333334,125.31005096123178L108.52066666666667,124.48409759596984L109.55399999999999,123.68368132200496L110.58733333333333,122.87210017541452L111.62066666666666,122.17345022544103L112.654,121.31957227468769L113.68733333333333,120.51095680231262L114.72066666666667,119.6674854996568L115.754,119.10718973729408L116.78733333333332,118.1860084337226L117.82066666666667,117.28793686311818L118.854,116.38655584383244L119.88733333333333,116.86767828995332L120.92066666666666,115.49598829608738L121.95400000000001,114.27499026130627L122.98733333333334,113.43306692120683L124.02066666666667,112.44377431137795L125.05399999999999,111.74422884163447L126.08733333333332,110.69867110305759L127.12066666666665,109.6955232627961L128.154,108.6824460009469L129.18733333333333,107.96963098999122L130.22066666666666,106.91211722380241L131.254,105.95977627178145L132.28733333333332,105.23189857556888L133.32066666666665,104.66362311168749L134.35399999999998,103.51475605451249L135.38733333333334,102.4258985605921L136.42066666666668,101.42301089116295L137.454,100.86102449142854L138.48733333333334,99.73904306024174L139.52066666666667,98.74379186979888L140.554,97.83548774207165L141.58733333333333,96.71788867889684L142.62066666666666,95.73145626022271L143.654,94.79813418882594L144.68733333333333,93.77988722002634L145.72066666666666,93.02234363009272L146.754,92.15260038478641L147.78733333333332,91.12238686548723L148.82066666666665,90.86069733563849L149.85399999999998,91.89744318503695L150.88733333333334,89.67267593506062L151.92066666666668,88.70902260430562L152.954,87.98512733662183L153.98733333333334,86.4129208971654L155.02066666666667,85.12567621618385L156.054,83.81329623451802L157.08733333333333,83.87879204359542L158.12066666666666,82.26975818288803L159.154,82.9086826741559L160.18733333333333,80.98854835449353L161.22066666666666,80.51565543096535L162.254,79.64413885954073L163.28733333333332,79.18571968591677L164.32066666666665,78.5131869077039L165.35399999999998,77.07960563019927L166.38733333333334,76.43664681561955L167.42066666666668,74.98370804129482L168.454,73.39101054593073L169.48733333333334,71.9624854140969L170.52066666666667,70.73610591191968L171.554,70.8322656144595L172.58733333333333,71.8084328782911L173.62066666666666,69.81421150582082L174.654,68.46117988426172L175.68733333333333,66.6614010074801L176.72066666666666,65.5948965179496L177.754,64.24592055500054L178.78733333333332,63.61732478492338L179.82066666666665,65.13826347672327L180.85399999999998,62.74877265334166L181.88733333333334,61.906577293928066L182.92066666666668,61.16612036674145L183.954,59.789442845044874L184.98733333333334,59.597903639719235L186.02066666666667,58.056087616523854L187.054,57.818437425683555L188.08733333333333,57.15546687848706L189.12066666666666,55.343157915553775L190.154,53.864236720486105L191.18733333333333,52.437385686137816L192.22066666666666,51.54241458475961L193.254,50.880853318163446L194.28733333333332,49.70079357743654L195.32066666666665,48.91596955992347L196.35399999999998,46.91779663980026L197.38733333333334,46.20322832041862L198.42066666666668,46.40503521340503L199.454,45.323780695350706L200.48733333333334,43.39826308067194L201.52066666666667,42.25886981955702L202.554,42.7697935744265L203.58733333333333,41.043322538886684L204.62066666666666,42.18256140794739L205.654,40.41070170053766L206.68733333333333,42.320562414553365L207.72066666666666,41.36110682373203L208.754,41.078697026931536L209.78733333333332,39.73315037962044L210.82066666666665,41.567902920079945L211.85399999999998,40.31094333858641L212.88733333333334,37.380486531998L213.92066666666668,35.7100229288142L214.954,34.03076284382698L215.98733333333334,32.86521895629616L217.02066666666667,32.67936699877771L218.054,30.77956342042043L219.08733333333333,31.618698965713804L220.12066666666666,31.37725457173599L221.154,32.19175231034927L222.18733333333333,28.31132970351726L223.22066666666666,28.086313014418067L224.254,29.066186318266205L225.28733333333332,28.267854002498183L226.32066666666665,25.16401783419124" style="fill: none;" fill="none"></path></g></g></g></g><g opacity="0.2"><g><g><g><path stroke="rgb(255, 112, 67)" stroke-width="2px" d="M20.687333333333335,164.29614540103032L21.720666666666666,164.17935768773006L22.753999999999998,164.06056838378908L23.787333333333333,163.9270057471642L24.820666666666664,163.78012837759164L25.854,163.62050936467097L26.88733333333333,163.44820106576773L27.920666666666666,163.2627016357422L28.954,163.06691977069562L29.987333333333336,162.85619904972955L31.020666666666664,162.63597486102765L32.054,162.40693975923978L33.08733333333333,162.16899696890025L34.120666666666665,161.91955611666165L35.153999999999996,161.6649923490084L36.187333333333335,161.39450742938703L37.22066666666667,161.11624537259615L38.254,160.83489452373797L39.287333333333336,160.54160903695913L40.32066666666667,160.23409872671274L41.354,159.9243560621995L42.38733333333333,159.61293963341348L43.42066666666667,159.279021488131L44.454,158.94244076397234L45.48733333333333,158.5964061298077L46.52066666666666,158.24382252103365L47.554,157.88282964242788L48.58733333333333,157.51415088641826L49.620666666666665,157.14014697265625L50.653999999999996,156.7730767953726L51.687333333333335,156.36253420973557L52.72066666666667,155.96108082932693L53.754,155.55115667067307L54.787333333333336,155.1384479191707L55.82066666666667,154.7094193810096L56.854,154.28716545973558L57.88733333333333,153.83798623046874L58.92066666666667,153.39145052584135L59.954,152.95790446213942L60.98733333333333,152.4765676983173L62.02066666666666,152.02071146334134L63.053999999999995,151.5282376652644L64.08733333333333,151.04632459435095L65.12066666666666,150.59498120492788L66.154,150.06016822415864L67.18733333333333,149.54713189603365L68.22066666666667,149.28272862079328L69.254,148.49322801983172L70.28733333333332,147.97052149939904L71.32066666666667,147.46584496694712L72.354,146.93869112079327L73.38733333333333,146.33300306490383L74.42066666666666,145.8282971153846L75.45400000000001,145.25512561598558L76.48733333333334,144.63889421574518L77.52066666666667,144.1781293419471L78.55399999999999,143.44964508713943L79.58733333333333,142.8394321514423L80.62066666666666,142.24651778846155L81.654,141.627820703125L82.68733333333333,141.0147984375L83.72066666666667,140.43732536057692L84.754,140.01509951923077L85.78733333333332,139.13405567908654L86.82066666666667,138.47672596153848L87.854,137.89407548076923L88.88733333333333,137.14461150841345L89.92066666666666,136.5364698016827L90.95400000000001,135.82008131009616L91.98733333333334,135.12106493389422L93.02066666666667,134.74907809495193L94.05399999999999,133.74181899038462L95.08733333333333,133.0041084735577L96.12066666666666,132.3395983173077L97.154,131.60116307091346L98.18733333333333,130.8807979266827L99.22066666666667,130.1606868389423L100.254,129.47082986778847L101.28733333333332,128.75387175480768L102.32066666666667,127.97603100961538L103.354,127.17187536057693L104.38733333333333,126.48492265625L105.42066666666666,125.8260498798077L106.45400000000001,125.06618831129808L107.48733333333334,124.04203311298076L108.52066666666667,123.24516754807692L109.55399999999999,122.4830569110577L110.58733333333333,121.65472845552884L111.62066666666666,121.12547530048077L112.654,120.03875534855769L113.68733333333333,119.29803359375L114.72066666666667,118.40227854567307L115.754,118.26674609375L116.78733333333332,116.80423647836538L117.82066666666667,115.94082950721153L118.854,115.03448431490385L119.88733333333333,117.58936195913462L120.92066666666666,113.43845330528846L121.95400000000001,112.44349320913462L122.98733333333334,112.1701819110577L124.02066666666667,110.95983539663462L125.05399999999999,110.69491063701923L126.08733333333332,109.1303344951923L127.12066666666665,108.19080150240384L128.154,107.16283010817308L129.18733333333333,106.90040847355769L130.22066666666666,105.32584657451923L131.254,104.53126484375001L132.28733333333332,104.14008203125L133.32066666666665,103.81120991586539L134.35399999999998,101.79145546875L135.38733333333334,100.79261231971154L136.42066666666668,99.91867938701924L137.454,100.01804489182692L138.48733333333334,98.05607091346154L139.52066666666667,97.25091508413462L140.554,96.47303155048077L141.58733333333333,95.04149008413461L142.62066666666666,94.25180763221154L143.654,93.39815108173076L144.68733333333333,92.25251676682691L145.72066666666666,91.8860282451923L146.754,90.84798551682692L147.78733333333332,89.57706658653846L148.82066666666665,90.46816304086539L149.85399999999998,93.45256195913461L150.88733333333334,86.33552506009615L151.92066666666668,87.26354260817307L152.954,86.89928443509615L153.98733333333334,84.05461123798078L155.02066666666667,83.19480919471154L156.054,81.84472626201922L157.08733333333333,83.97703575721154L158.12066666666666,79.85620739182693L159.154,83.86706941105768L160.18733333333333,78.108346875L161.22066666666666,79.80631604567307L162.254,78.33686400240386L163.28733333333332,78.49809092548078L164.32066666666665,77.5043877403846L165.35399999999998,74.9292337139423L166.38733333333334,75.47220859375L167.42066666666668,72.80429987980769L168.454,71.00196430288462L169.48733333333334,69.81969771634616L170.52066666666667,68.89653665865386L171.554,70.97650516826923L172.58733333333333,73.27268377403846L173.62066666666666,66.82287944711538L174.654,66.43163245192308L175.68733333333333,63.96173269230769L176.72066666666666,63.99513978365384L177.754,62.22245661057691L178.78733333333332,62.67443112980769L179.82066666666665,67.41967151442307L180.85399999999998,59.164536418269236L181.88733333333334,60.64328425480768L182.92066666666668,60.05543497596153L183.954,57.7244265625L184.98733333333334,59.31059483173077L186.02066666666667,55.74336358173076L187.054,57.461962139423065L188.08733333333333,56.16101105769232L189.12066666666666,52.62469447115386L190.154,51.64585492788461L191.18733333333333,50.29710913461538L192.22066666666666,50.199957932692314L193.254,49.88851141826922L194.28733333333332,47.93070396634616L195.32066666666665,47.73873353365386L196.35399999999998,43.9205372596154L197.38733333333334,45.13137584134617L198.42066666666668,46.7077455528846L199.454,43.70189891826922L200.48733333333334,40.509986658653844L201.52066666666667,40.54977992788463L202.554,43.536179206730765L203.58733333333333,38.45361598557693L204.62066666666666,43.891419711538475L205.654,37.752912139423074L206.68733333333333,45.18535348557691L207.72066666666666,39.9219234375L208.754,40.65508233173077L209.78733333333332,37.714830408653825L210.82066666666665,44.320031730769244L211.85399999999998,38.425503966346156L212.88733333333334,32.9848013221154L213.92066666666668,33.20432752403846L214.954,31.511872716346147L215.98733333333334,31.116903124999993L217.02066666666667,32.40058906249999L218.054,27.92985805288461L219.08733333333333,32.87740228365385L220.12066666666666,31.015087980769238L221.154,33.41349891826923L222.18733333333333,22.490695793269225L223.22066666666666,27.748787980769237L224.254,30.535996274038467L225.28733333333332,27.070355528846164L226.32066666666665,20.508263581730773" style="fill: none;" fill="none"></path></g></g></g></g></g></g><g transform="translate(82, 178)" clip-path="url(#clip_1)"><clipPath id="clip_1"><rect width="248" height="22"></rect></clipPath><g><g><line x1="0" y1="0" x2="0" y2="5" style="visibility: inherit;" fill="rgb(0, 0, 0)" stroke="rgb(204, 204, 204)" stroke-width="1px"></line><line x1="20.666666666666664" y1="0" x2="20.666666666666664" y2="5" style="visibility: inherit;" fill="rgb(0, 0, 0)" stroke="rgb(204, 204, 204)" stroke-width="1px"></line><line x1="41.33333333333333" y1="0" x2="41.33333333333333" y2="5" style="visibility: inherit;" fill="rgb(0, 0, 0)" stroke="rgb(204, 204, 204)" stroke-width="1px"></line><line x1="62" y1="0" x2="62" y2="5" style="visibility: inherit;" fill="rgb(0, 0, 0)" stroke="rgb(204, 204, 204)" stroke-width="1px"></line><line x1="82.66666666666666" y1="0" x2="82.66666666666666" y2="5" style="visibility: inherit;" fill="rgb(0, 0, 0)" stroke="rgb(204, 204, 204)" stroke-width="1px"></line><line x1="103.33333333333334" y1="0" x2="103.33333333333334" y2="5" style="visibility: inherit;" fill="rgb(0, 0, 0)" stroke="rgb(204, 204, 204)" stroke-width="1px"></line><line x1="124" y1="0" x2="124" y2="5" style="visibility: inherit;" fill="rgb(0, 0, 0)" stroke="rgb(204, 204, 204)" stroke-width="1px"></line><line x1="144.66666666666669" y1="0" x2="144.66666666666669" y2="5" style="visibility: inherit;" fill="rgb(0, 0, 0)" stroke="rgb(204, 204, 204)" stroke-width="1px"></line><line x1="165.33333333333331" y1="0" x2="165.33333333333331" y2="5" style="visibility: inherit;" fill="rgb(0, 0, 0)" stroke="rgb(204, 204, 204)" stroke-width="1px"></line><line x1="186" y1="0" x2="186" y2="5" style="visibility: inherit;" fill="rgb(0, 0, 0)" stroke="rgb(204, 204, 204)" stroke-width="1px"></line><line x1="206.66666666666669" y1="0" x2="206.66666666666669" y2="5" style="visibility: inherit;" fill="rgb(0, 0, 0)" stroke="rgb(204, 204, 204)" stroke-width="1px"></line><line x1="227.33333333333331" y1="0" x2="227.33333333333331" y2="5" style="visibility: inherit;" fill="rgb(0, 0, 0)" stroke="rgb(204, 204, 204)" stroke-width="1px"></line><line x1="248" y1="0" x2="248" y2="5" style="visibility: inherit;" fill="rgb(0, 0, 0)" stroke="rgb(204, 204, 204)" stroke-width="1px"></line></g><g transform="translate(0, 8)"><text x="0" y="0" dx="0em" dy="0.95em" style="text-anchor: middle; visibility: hidden; font-family: &quot;Helvetica Neue&quot;, sans-serif; font-size: 12px; font-weight: 200;" fill="rgb(50, 49, 63)" stroke="none" stroke-width="1px">-1k</text><text x="20.666666666666664" y="0" dx="0em" dy="0.95em" style="text-anchor: middle; visibility: inherit; font-family: &quot;Helvetica Neue&quot;, sans-serif; font-size: 12px; font-weight: 200;" fill="rgb(50, 49, 63)" stroke="none" stroke-width="1px">0</text><text x="41.33333333333333" y="0" dx="0em" dy="0.95em" style="text-anchor: middle; visibility: hidden; font-family: &quot;Helvetica Neue&quot;, sans-serif; font-size: 12px; font-weight: 200;" fill="rgb(50, 49, 63)" stroke="none" stroke-width="1px">1k</text><text x="62" y="0" dx="0em" dy="0.95em" style="text-anchor: middle; visibility: inherit; font-family: &quot;Helvetica Neue&quot;, sans-serif; font-size: 12px; font-weight: 200;" fill="rgb(50, 49, 63)" stroke="none" stroke-width="1px">2k</text><text x="82.66666666666666" y="0" dx="0em" dy="0.95em" style="text-anchor: middle; visibility: hidden; font-family: &quot;Helvetica Neue&quot;, sans-serif; font-size: 12px; font-weight: 200;" fill="rgb(50, 49, 63)" stroke="none" stroke-width="1px">3k</text><text x="103.33333333333334" y="0" dx="0em" dy="0.95em" style="text-anchor: middle; visibility: inherit; font-family: &quot;Helvetica Neue&quot;, sans-serif; font-size: 12px; font-weight: 200;" fill="rgb(50, 49, 63)" stroke="none" stroke-width="1px">4k</text><text x="124" y="0" dx="0em" dy="0.95em" style="text-anchor: middle; visibility: hidden; font-family: &quot;Helvetica Neue&quot;, sans-serif; font-size: 12px; font-weight: 200;" fill="rgb(50, 49, 63)" stroke="none" stroke-width="1px">5k</text><text x="144.66666666666669" y="0" dx="0em" dy="0.95em" style="text-anchor: middle; visibility: inherit; font-family: &quot;Helvetica Neue&quot;, sans-serif; font-size: 12px; font-weight: 200;" fill="rgb(50, 49, 63)" stroke="none" stroke-width="1px">6k</text><text x="165.33333333333331" y="0" dx="0em" dy="0.95em" style="text-anchor: middle; visibility: hidden; font-family: &quot;Helvetica Neue&quot;, sans-serif; font-size: 12px; font-weight: 200;" fill="rgb(50, 49, 63)" stroke="none" stroke-width="1px">7k</text><text x="186" y="0" dx="0em" dy="0.95em" style="text-anchor: middle; visibility: inherit; font-family: &quot;Helvetica Neue&quot;, sans-serif; font-size: 12px; font-weight: 200;" fill="rgb(50, 49, 63)" stroke="none" stroke-width="1px">8k</text><text x="206.66666666666669" y="0" dx="0em" dy="0.95em" style="text-anchor: middle; visibility: hidden; font-family: &quot;Helvetica Neue&quot;, sans-serif; font-size: 12px; font-weight: 200;" fill="rgb(50, 49, 63)" stroke="none" stroke-width="1px">9k</text><text x="227.33333333333331" y="0" dx="0em" dy="0.95em" style="text-anchor: middle; visibility: inherit; font-family: &quot;Helvetica Neue&quot;, sans-serif; font-size: 12px; font-weight: 200;" fill="rgb(50, 49, 63)" stroke="none" stroke-width="1px">10k</text><text x="248" y="0" dx="0em" dy="0.95em" style="text-anchor: middle; visibility: hidden; font-family: &quot;Helvetica Neue&quot;, sans-serif; font-size: 12px; font-weight: 200;" fill="rgb(50, 49, 63)" stroke="none" stroke-width="1px">11k</text></g><line x1="0" y1="0" x2="248" y2="0" fill="rgb(0, 0, 0)" stroke="rgb(204, 204, 204)" stroke-width="1px"></line></g></g></g></g></svg>