<svg viewBox="0 0 330 200" xmlns="http://www.w3.org/2000/svg"><g><g><g><g><g><line x1="82" y1="178" x2="77" y2="178" style="visibility: inherit;" fill="rgb(0, 0, 0)" stroke="rgb(204, 204, 204)" stroke-width="1px"></line><line x1="82" y1="164.30769230769232" x2="77" y2="164.30769230769232" style="visibility: inherit;" fill="rgb(0, 0, 0)" stroke="rgb(204, 204, 204)" stroke-width="1px"></line><line x1="82" y1="150.6153846153846" x2="77" y2="150.6153846153846" style="visibility: inherit;" fill="rgb(0, 0, 0)" stroke="rgb(204, 204, 204)" stroke-width="1px"></line><line x1="82" y1="136.9230769230769" x2="77" y2="136.9230769230769" style="visibility: inherit;" fill="rgb(0, 0, 0)" stroke="rgb(204, 204, 204)" stroke-width="1px"></line><line x1="82" y1="123.23076923076923" x2="77" y2="123.23076923076923" style="visibility: inherit;" fill="rgb(0, 0, 0)" stroke="rgb(204, 204, 204)" stroke-width="1px"></line><line x1="82" y1="109.53846153846153" x2="77" y2="109.53846153846153" style="visibility: inherit;" fill="rgb(0, 0, 0)" stroke="rgb(204, 204, 204)" stroke-width="1px"></line><line x1="82" y1="95.84615384615384" x2="77" y2="95.84615384615384" style="visibility: inherit;" fill="rgb(0, 0, 0)" stroke="rgb(204, 204, 204)" stroke-width="1px"></line><line x1="82" y1="82.15384615384616" x2="77" y2="82.15384615384616" style="visibility: inherit;" fill="rgb(0, 0, 0)" stroke="rgb(204, 204, 204)" stroke-width="1px"></line><line x1="82" y1="68.46153846153845" x2="77" y2="68.46153846153845" style="visibility: inherit;" fill="rgb(0, 0, 0)" stroke="rgb(204, 204, 204)" stroke-width="1px"></line><line x1="82" y1="54.769230769230774" x2="77" y2="54.769230769230774" style="visibility: inherit;" fill="rgb(0, 0, 0)" stroke="rgb(204, 204, 204)" stroke-width="1px"></line><line x1="82" y1="41.076923076923066" x2="77" y2="41.076923076923066" style="visibility: inherit;" fill="rgb(0, 0, 0)" stroke="rgb(204, 204, 204)" stroke-width="1px"></line><line x1="82" y1="27.384615384615387" x2="77" y2="27.384615384615387" style="visibility: inherit;" fill="rgb(0, 0, 0)" stroke="rgb(204, 204, 204)" stroke-width="1px"></line><line x1="82" y1="13.69230769230768" x2="77" y2="13.69230769230768" style="visibility: inherit;" fill="rgb(0, 0, 0)" stroke="rgb(204, 204, 204)" stroke-width="1px"></line><line x1="82" y1="0" x2="77" y2="0" style="visibility: inherit;" fill="rgb(0, 0, 0)" stroke="rgb(204, 204, 204)" stroke-width="1px"></line></g><g transform="translate(72, 0)"><text x="0" y="178" dx="0em" dy="0.3em" style="text-anchor: end; visibility: hidden; font-family: &quot;Helvetica Neue&quot;, sans-serif; font-size: 12px; font-weight: 200;" fill="rgb(50, 49, 63)" stroke="none" stroke-width="1px">-1e+4</text><text x="0" y="164.30769230769232" dx="0em" dy="0.3em" style="text-anchor: end; visibility: inherit; font-family: &quot;Helvetica Neue&quot;, sans-serif; font-size: 12px; font-weight: 200;" fill="rgb(50, 49, 63)" stroke="none" stroke-width="1px">0</text><text x="0" y="150.6153846153846" dx="0em" dy="0.3em" style="text-anchor: end; visibility: hidden; font-family: &quot;Helvetica Neue&quot;, sans-serif; font-size: 12px; font-weight: 200;" fill="rgb(50, 49, 63)" stroke="none" stroke-width="1px">1e+4</text><text x="0" y="136.9230769230769" dx="0em" dy="0.3em" style="text-anchor: end; visibility: inherit; font-family: &quot;Helvetica Neue&quot;, sans-serif; font-size: 12px; font-weight: 200;" fill="rgb(50, 49, 63)" stroke="none" stroke-width="1px">2e+4</text><text x="0" y="123.23076923076923" dx="0em" dy="0.3em" style="text-anchor: end; visibility: hidden; font-family: &quot;Helvetica Neue&quot;, sans-serif; font-size: 12px; font-weight: 200;" fill="rgb(50, 49, 63)" stroke="none" stroke-width="1px">3e+4</text><text x="0" y="109.53846153846153" dx="0em" dy="0.3em" style="text-anchor: end; visibility: inherit; font-family: &quot;Helvetica Neue&quot;, sans-serif; font-size: 12px; font-weight: 200;" fill="rgb(50, 49, 63)" stroke="none" stroke-width="1px">4e+4</text><text x="0" y="95.84615384615384" dx="0em" dy="0.3em" style="text-anchor: end; visibility: hidden; font-family: &quot;Helvetica Neue&quot;, sans-serif; font-size: 12px; font-weight: 200;" fill="rgb(50, 49, 63)" stroke="none" stroke-width="1px">5e+4</text><text x="0" y="82.15384615384616" dx="0em" dy="0.3em" style="text-anchor: end; visibility: inherit; font-family: &quot;Helvetica Neue&quot;, sans-serif; font-size: 12px; font-weight: 200;" fill="rgb(50, 49, 63)" stroke="none" stroke-width="1px">6e+4</text><text x="0" y="68.46153846153845" dx="0em" dy="0.3em" style="text-anchor: end; visibility: hidden; font-family: &quot;Helvetica Neue&quot;, sans-serif; font-size: 12px; font-weight: 200;" fill="rgb(50, 49, 63)" stroke="none" stroke-width="1px">7e+4</text><text x="0" y="54.769230769230774" dx="0em" dy="0.3em" style="text-anchor: end; visibility: inherit; font-family: &quot;Helvetica Neue&quot;, sans-serif; font-size: 12px; font-weight: 200;" fill="rgb(50, 49, 63)" stroke="none" stroke-width="1px">8e+4</text><text x="0" y="41.076923076923066" dx="0em" dy="0.3em" style="text-anchor: end; visibility: hidden; font-family: &quot;Helvetica Neue&quot;, sans-serif; font-size: 12px; font-weight: 200;" fill="rgb(50, 49, 63)" stroke="none" stroke-width="1px">9e+4</text><text x="0" y="27.384615384615387" dx="0em" dy="0.3em" style="text-anchor: end; visibility: inherit; font-family: &quot;Helvetica Neue&quot;, sans-serif; font-size: 12px; font-weight: 200;" fill="rgb(50, 49, 63)" stroke="none" stroke-width="1px">1e+5</text><text x="0" y="13.69230769230768" dx="0em" dy="0.3em" style="text-anchor: end; visibility: hidden; font-family: &quot;Helvetica Neue&quot;, sans-serif; font-size: 12px; font-weight: 200;" fill="rgb(50, 49, 63)" stroke="none" stroke-width="1px">1.1e+5</text><text x="0" y="0" dx="0em" dy="0.3em" style="text-anchor: end; visibility: hidden; font-family: &quot;Helvetica Neue&quot;, sans-serif; font-size: 12px; font-weight: 200;" fill="rgb(50, 49, 63)" stroke="none" stroke-width="1px">1.2e+5</text></g><line x1="82" y1="0" x2="82" y2="178" fill="rgb(0, 0, 0)" stroke="rgb(204, 204, 204)" stroke-width="1px"></line></g></g><g transform="translate(82, 0)" clip-path="url(#clip_0)"><clipPath id="clip_0"><rect width="248" height="178"></rect></clipPath><g><g><g><line x1="0" y1="0" x2="0" y2="178" fill="rgb(0, 0, 0)" stroke="rgb(60, 60, 60)" stroke-width="1px" opacity="0.25"></line><line x1="20.666666666666664" y1="0" x2="20.666666666666664" y2="178" fill="rgb(0, 0, 0)" stroke="rgb(60, 60, 60)" stroke-width="1px" opacity="0.25"></line><line x1="41.33333333333333" y1="0" x2="41.33333333333333" y2="178" fill="rgb(0, 0, 0)" stroke="rgb(60, 60, 60)" stroke-width="1px" opacity="0.25"></line><line x1="62" y1="0" x2="62" y2="178" fill="rgb(0, 0, 0)" stroke="rgb(60, 60, 60)" stroke-width="1px" opacity="0.25"></line><line x1="82.66666666666666" y1="0" x2="82.66666666666666" y2="178" fill="rgb(0, 0, 0)" stroke="rgb(60, 60, 60)" stroke-width="1px" opacity="0.25"></line><line x1="103.33333333333334" y1="0" x2="103.33333333333334" y2="178" fill="rgb(0, 0, 0)" stroke="rgb(60, 60, 60)" stroke-width="1px" opacity="0.25"></line><line x1="124" y1="0" x2="124" y2="178" fill="rgb(0, 0, 0)" stroke="rgb(60, 60, 60)" stroke-width="1px" opacity="0.25"></line><line x1="144.66666666666669" y1="0" x2="144.66666666666669" y2="178" fill="rgb(0, 0, 0)" stroke="rgb(60, 60, 60)" stroke-width="1px" opacity="0.25"></line><line x1="165.33333333333331" y1="0" x2="165.33333333333331" y2="178" fill="rgb(0, 0, 0)" stroke="rgb(60, 60, 60)" stroke-width="1px" opacity="0.25"></line><line x1="186" y1="0" x2="186" y2="178" fill="rgb(0, 0, 0)" stroke="rgb(60, 60, 60)" stroke-width="1px" opacity="0.25"></line><line x1="206.66666666666669" y1="0" x2="206.66666666666669" y2="178" fill="rgb(0, 0, 0)" stroke="rgb(60, 60, 60)" stroke-width="1px" opacity="0.25"></line><line x1="227.33333333333331" y1="0" x2="227.33333333333331" y2="178" fill="rgb(0, 0, 0)" stroke="rgb(60, 60, 60)" stroke-width="1px" opacity="0.25"></line><line x1="248" y1="0" x2="248" y2="178" fill="rgb(0, 0, 0)" stroke="rgb(60, 60, 60)" stroke-width="1px" opacity="0.25"></line></g><g><line x1="0" y1="178" x2="248" y2="178" fill="rgb(0, 0, 0)" stroke="rgb(60, 60, 60)" stroke-width="1px" opacity="0.25"></line><line x1="0" y1="164.30769230769232" x2="248" y2="164.30769230769232" fill="rgb(0, 0, 0)" stroke="rgb(60, 60, 60)" stroke-width="1px" opacity="0.25"></line><line x1="0" y1="150.6153846153846" x2="248" y2="150.6153846153846" fill="rgb(0, 0, 0)" stroke="rgb(60, 60, 60)" stroke-width="1px" opacity="0.25"></line><line x1="0" y1="136.9230769230769" x2="248" y2="136.9230769230769" fill="rgb(0, 0, 0)" stroke="rgb(60, 60, 60)" stroke-width="1px" opacity="0.25"></line><line x1="0" y1="123.23076923076923" x2="248" y2="123.23076923076923" fill="rgb(0, 0, 0)" stroke="rgb(60, 60, 60)" stroke-width="1px" opacity="0.25"></line><line x1="0" y1="109.53846153846153" x2="248" y2="109.53846153846153" fill="rgb(0, 0, 0)" stroke="rgb(60, 60, 60)" stroke-width="1px" opacity="0.25"></line><line x1="0" y1="95.84615384615384" x2="248" y2="95.84615384615384" fill="rgb(0, 0, 0)" stroke="rgb(60, 60, 60)" stroke-width="1px" opacity="0.25"></line><line x1="0" y1="82.15384615384616" x2="248" y2="82.15384615384616" fill="rgb(0, 0, 0)" stroke="rgb(60, 60, 60)" stroke-width="1px" opacity="0.25"></line><line x1="0" y1="68.46153846153845" x2="248" y2="68.46153846153845" fill="rgb(0, 0, 0)" stroke="rgb(60, 60, 60)" stroke-width="1px" opacity="0.25"></line><line x1="0" y1="54.769230769230774" x2="248" y2="54.769230769230774" fill="rgb(0, 0, 0)" stroke="rgb(60, 60, 60)" stroke-width="1px" opacity="0.25"></line><line x1="0" y1="41.076923076923066" x2="248" y2="41.076923076923066" fill="rgb(0, 0, 0)" stroke="rgb(60, 60, 60)" stroke-width="1px" opacity="0.25"></line><line x1="0" y1="27.384615384615387" x2="248" y2="27.384615384615387" fill="rgb(0, 0, 0)" stroke="rgb(60, 60, 60)" stroke-width="1px" opacity="0.25"></line><line x1="0" y1="13.69230769230768" x2="248" y2="13.69230769230768" fill="rgb(0, 0, 0)" stroke="rgb(60, 60, 60)" stroke-width="1px" opacity="0.25"></line><line x1="0" y1="0" x2="248" y2="0" fill="rgb(0, 0, 0)" stroke="rgb(60, 60, 60)" stroke-width="1px" opacity="0.25"></line></g></g></g><g><g><line x1="0" y1="164.30769230769232" x2="248" y2="164.30769230769232" fill="rgb(0, 0, 0)" stroke="rgb(153, 153, 153)" stroke-width="1.5px"></line></g></g><g><g><line x1="20.666666666666664" y1="0" x2="20.666666666666664" y2="178" fill="rgb(0, 0, 0)" stroke="rgb(153, 153, 153)" stroke-width="1.5px"></line></g></g><g><g><g><g><g><path stroke="rgb(255, 112, 67)" stroke-width="2px" d="M20.687333333333335,164.28957119313753L21.720666666666666,164.15100247659316L22.753999999999998,163.9973784758773L23.787333333333333,163.81959141418156L24.820666666666664,163.62384213900265L25.854,163.40668077943698L26.88733333333333,163.18547192257623L27.920666666666666,162.92589804626675L28.954,162.6356119683525L29.987333333333336,162.32491440785782L31.020666666666664,162.00417902860505L32.054,161.74840947712465L33.08733333333333,161.4226543786501L34.120666666666665,161.08780579831495L35.153999999999996,160.64543519451192L36.187333333333335,160.23988689186936L37.22066666666667,159.8200916382053L38.254,159.3977810443997L39.287333333333336,158.97558489489853L40.32066666666667,158.50282887158085L41.354,157.96113922598718L42.38733333333333,157.51529844260034L43.42066666666667,156.97038858135292L44.454,156.61924521993654L45.48733333333333,156.00004562997313L46.52066666666666,155.36360580255015L47.554,154.81607807739076L48.58733333333333,154.46260193886198L49.620666666666665,153.7945385794245L50.653999999999996,153.24041958164383L51.687333333333335,152.4855239325075L52.72066666666667,151.8547732576225L53.754,151.0893343927819L54.787333333333336,150.40140152942058L55.82066666666667,149.6744557729441L56.854,148.95768587223878L57.88733333333333,148.25865887478645L58.92066666666667,147.9563686049994L59.954,147.24466943665442L60.98733333333333,146.58989176929046L62.02066666666666,145.80486731455042L63.053999999999995,144.6812269807376L64.08733333333333,145.13887300347855L65.12066666666666,144.77800757005346L66.154,143.59940954190955L67.18733333333333,142.61132522027643L68.22066666666667,141.3326461898103L69.254,140.57103978117678L70.28733333333332,139.5200148422496L71.32066666666667,139.7904981361212L72.354,138.2077933528189L73.38733333333333,136.74870966553323L74.42066666666666,135.69268679691424L75.45400000000001,135.2120471743019L76.48733333333334,134.68446413390774L77.52066666666667,133.1103614250556L78.55399999999999,132.219211013687L79.58733333333333,136.360542792107L80.62066666666666,133.13849017045624L81.654,130.6125432008313L82.68733333333333,129.63530521136414L83.72066666666667,127.88205902826076L84.754,127.46444384243722L85.78733333333332,126.6868920386354L86.82066666666667,125.49788527125816L87.854,124.55746916756259L88.88733333333333,123.46068180101832L89.92066666666666,123.17422930897638L90.95400000000001,120.95094525365506L91.98733333333334,119.92365683969304L93.02066666666667,119.96883833458504L94.05399999999999,119.18202511613563L95.08733333333333,117.89685372352754L96.12066666666666,116.71465860430882L97.154,116.23839316739299L98.18733333333333,115.6732552033204L99.22066666666667,113.72830006910763L100.254,112.3895527097338L101.28733333333332,112.54678972680182L102.32066666666667,112.58476669665801L103.354,111.21751408049481L104.38733333333333,110.9081594338738L105.42066666666666,109.4764824632089L106.45400000000001,108.96424894907919L107.48733333333334,108.80124073963982L108.52066666666667,107.41776021301465L109.55399999999999,107.12538379607803L110.58733333333333,108.14923508533913L111.62066666666666,106.960106339665L112.654,105.49106402014516L113.68733333333333,103.31058307554864L114.72066666666667,102.53606986936764L115.754,100.65040206585135L116.78733333333332,99.34260381162619L117.82066666666667,98.6718555562065L118.854,97.86570816545468L119.88733333333333,96.59066211081127L120.92066666666666,95.67694457417906L121.95400000000001,95.01880119162281L122.98733333333334,94.48801045055062L124.02066666666667,93.80455256840729L125.05399999999999,90.65716089200592L126.08733333333332,88.94297333808817L127.12066666666665,89.4471713105452L128.154,89.24150651228867L129.18733333333333,89.49374539775782L130.22066666666666,89.87138406557777L131.254,88.13951156915435L132.28733333333332,86.33502230206953L133.32066666666665,86.5022545831648L134.35399999999998,84.84845957682197L135.38733333333334,87.21766550570857L136.42066666666668,85.23486418323282L137.454,83.99948317340123L138.48733333333334,83.6464421876946L139.52066666666667,82.13128105780908L140.554,82.5727080337239L141.58733333333333,81.28357073369588L142.62066666666666,80.2337754450252L143.654,79.35610601220743L144.68733333333333,77.33879928040139L145.72066666666666,80.59826480862544L146.754,79.87118674575218L147.78733333333332,79.14432067725899L148.82066666666665,77.2807886563554L149.85399999999998,78.45542069381324L150.88733333333334,75.84743592590334L151.92066666666668,73.46684881515738L152.954,72.89020943332518L153.98733333333334,72.45093840037974L155.02066666666667,71.517081694074L156.054,70.17593387221363L157.08733333333333,69.76459522717433L158.12066666666666,66.95932872284305L159.154,66.8349653106289L160.18733333333333,66.91969149406965L161.22066666666666,65.74311451182642L162.254,64.48647654363431L163.28733333333332,63.08415015694979L164.32066666666665,63.297532690323735L165.35399999999998,62.49135745073269L166.38733333333334,63.166624855055005L167.42066666666668,61.34525774957146L168.454,60.11766239012751L169.48733333333334,60.12421238599957L170.52066666666667,57.99958329698434L171.554,56.87737238203677L172.58733333333333,57.48955241960668L173.62066666666666,56.269892028687096L174.654,55.87339901528918L175.68733333333333,55.98888455340426L176.72066666666666,54.02738842435025L177.754,52.817569304610174L178.78733333333332,52.50017071738148L179.82066666666665,52.640280988121205L180.85399999999998,49.625713737103496L181.88733333333334,49.01036925187748L182.92066666666668,50.43552236843418L183.954,48.67177640182973L184.98733333333334,47.591659639174765L186.02066666666667,46.247549677735634L187.054,47.35974398933368L188.08733333333333,46.68452980706175L189.12066666666666,45.13933697077553L190.154,45.33502900938839L191.18733333333333,44.20225952101765L192.22066666666666,44.521348981841356L193.254,43.74712270641251L194.28733333333332,41.94445054692446L195.32066666666665,40.64238826084696L196.35399999999998,40.521222812277415L197.38733333333334,39.037796523904916L198.42066666666668,39.645807577804504L199.454,38.98731959475961L200.48733333333334,38.802330987625L201.52066666666667,38.175972198344226L202.554,36.4532146651604L203.58733333333333,42.564441635634694L204.62066666666666,39.70527421215007L205.654,38.562955152290044L206.68733333333333,35.3116124182971L207.72066666666666,35.02659153751671L208.754,31.827901701356183L209.78733333333332,32.63666616504449L210.82066666666665,31.90458027594977L211.85399999999998,32.230292300185226L212.88733333333334,30.732477399341917L213.92066666666668,27.925298987682055L214.954,27.981750642609228L215.98733333333334,42.92775990479632L217.02066666666667,34.01644214480086L218.054,30.772901200342062L219.08733333333333,29.085334470205225L220.12066666666666,28.978159768661584L221.154,27.007735957350803L222.18733333333333,26.6681747474874L223.22066666666666,25.82036898310784L224.254,22.12847215909548L225.28733333333332,26.987079737764958L226.32066666666665,24.897402025351283" style="fill: none;" fill="none"></path></g></g></g></g><g opacity="0.2"><g><g><g><path stroke="rgb(255, 112, 67)" stroke-width="2px" d="M20.687333333333335,164.28957119313753L21.720666666666666,164.06786124666655L22.753999999999998,163.84989943519005L23.787333333333333,163.6105138296274L24.820666666666664,163.36827188532902L25.854,163.1062684410682L26.88733333333333,162.86913971792367L27.920666666666666,162.54743684269832L28.954,162.20749638859675L29.987333333333336,161.86356474045974L31.020666666666664,161.52598500600962L32.054,161.3661470365084L33.08733333333333,160.93508537785456L34.120666666666665,160.58618893103966L35.153999999999996,159.98239927884615L36.187333333333335,159.6318504619892L37.22066666666667,159.19057640099157L38.254,158.76442237830528L39.287333333333336,158.34235498798077L40.32066666666667,157.7937380483774L41.354,157.14863446514423L42.38733333333333,156.84655193810096L43.42066666666667,156.15303454777643L44.454,156.0925343374399L45.48733333333333,155.07125064603366L46.52066666666666,154.40894877554086L47.554,153.994787890625L48.58733333333333,153.93238827373798L49.620666666666665,152.79244415564904L50.653999999999996,152.40924139122598L51.687333333333335,151.35318070913462L52.72066666666667,150.90864737079326L53.754,149.94117618689904L54.787333333333336,149.36950228365384L55.82066666666667,148.58403716947115L56.854,147.88253103966346L57.88733333333333,147.2101183894231L58.92066666666667,147.502933203125L59.954,146.17712068810096L60.98733333333333,145.6077252704327L62.02066666666666,144.6273306340144L63.053999999999995,142.9957664813702L64.08733333333333,145.82534203725962L65.12066666666666,144.23670942007212L66.154,141.8315125L67.18733333333333,141.12919873798077L68.22066666666667,139.41462764423076L69.254,139.42863016826922L70.28733333333332,137.94347743389423L71.32066666666667,140.19622307692308L72.354,135.83373617788462L73.38733333333333,134.56008413461538L74.42066666666666,134.10865249399038L75.45400000000001,134.49108774038461L76.48733333333334,133.8930895733173L77.52066666666667,130.74920736177884L78.55399999999999,130.88248539663462L79.58733333333333,142.5725404597356L80.62066666666666,128.30541123798076L81.654,126.82362274639424L82.68733333333333,128.16944822716346L83.72066666666667,125.25218975360576L84.754,126.83802106370192L85.78733333333332,125.5205643329327L86.82066666666667,123.7143751201923L87.854,123.14684501201923L88.88733333333333,121.81550075120192L89.92066666666666,122.74455057091346L90.95400000000001,117.61601917067307L91.98733333333334,118.38272421875001L93.02066666666667,120.03661057692308L94.05399999999999,118.00180528846154L95.08733333333333,115.96909663461538L96.12066666666666,114.94136592548077L97.154,115.52399501201923L98.18733333333333,114.82554825721155L99.22066666666667,110.81086736778846L100.254,110.38143167067308L101.28733333333332,112.78264525240385L102.32066666666667,112.64173215144231L103.354,109.16663515625L104.38733333333333,110.44412746394231L105.42066666666666,107.32896700721153L106.45400000000001,108.19589867788461L107.48733333333334,108.55672842548077L108.52066666666667,105.34253942307691L109.55399999999999,106.68681917067308L110.58733333333333,109.68501201923077L111.62066666666666,105.17641322115385L112.654,103.28750054086538L113.68733333333333,100.03986165865385L114.72066666666667,101.37430006009616L115.754,97.82190036057692L116.78733333333332,97.38090643028846L117.82066666666667,97.66573317307693L118.854,96.65648707932692L119.88733333333333,94.67809302884616L120.92066666666666,94.30636826923077L121.95400000000001,94.03158611778846L122.98733333333334,93.69182433894231L124.02066666666667,92.77936574519231L125.05399999999999,85.93607337740384L126.08733333333332,86.37169200721155L127.12066666666665,90.20346826923077L128.154,88.93300931490384L129.18733333333333,89.87210372596154L130.22066666666666,90.4378420673077L131.254,85.54170282451923L132.28733333333332,83.6282884014423L133.32066666666665,86.75310300480768L134.35399999999998,82.3677670673077L135.38733333333334,90.77147439903845L136.42066666666668,82.26066219951925L137.454,82.14641165865385L138.48733333333334,83.1168807091346L139.52066666666667,79.85853936298076L140.554,83.23484849759616L141.58733333333333,79.34986478365384L142.62066666666666,78.65908251201924L143.654,78.03960186298077L144.68733333333333,74.31283918269231L145.72066666666666,85.48746310096153L146.754,78.7805696514423L147.78733333333332,78.05402157451923L148.82066666666665,74.48549062500001L149.85399999999998,80.21736874999999L150.88733333333334,71.93545877403847L151.92066666666668,69.89596814903847L152.954,72.02525036057692L153.98733333333334,71.79203185096154L155.02066666666667,70.11629663461538L156.054,68.16421213942309L157.08733333333333,69.14758725961539L158.12066666666666,62.751428966346154L159.154,66.6484201923077L160.18733333333333,67.04678076923078L161.22066666666666,63.97824903846154L162.254,62.60151959134615L163.28733333333332,60.980660576923086L164.32066666666665,63.61760649038462L165.35399999999998,61.282094591346166L166.38733333333334,64.17952596153846L167.42066666666668,58.613207091346155L168.454,58.27626935096154L169.48733333333334,60.134037379807694L170.52066666666667,54.81263966346154L171.554,55.19405600961538L172.58733333333333,58.40782247596154L173.62066666666666,54.44040144230769L174.654,55.278659495192315L175.68733333333333,56.162112860576926L176.72066666666666,51.08514423076923L177.754,51.00284062499999L178.78733333333332,52.02407283653845L179.82066666666665,52.85044639423077L180.85399999999998,45.103862860576925L181.88733333333334,48.087352524038465L182.92066666666668,52.573252043269235L183.954,46.0261574519231L184.98733333333334,45.9714844951923L186.02066666666667,44.23138473557691L187.054,49.02803545673078L188.08733333333333,45.67170853365383L189.12066666666666,42.821547716346146L190.154,45.6285670673077L191.18733333333333,42.50310528846154L192.22066666666666,44.99998317307691L193.254,42.58578329326923L194.28733333333332,39.24044230769232L195.32066666666665,38.68929483173076L196.35399999999998,40.33947463942309L197.38733333333334,36.81265709134615L198.42066666666668,40.55782415865386L199.454,37.9995876201923L200.48733333333334,38.524848076923064L201.52066666666667,37.23643401442308L202.554,33.86907836538461L203.58733333333333,51.731282091346145L204.62066666666666,35.416523076923085L205.654,36.8494765625L206.68733333333333,30.43459831730769L207.72066666666666,34.599060216346146L208.754,27.02986694711538L209.78733333333332,33.84981286057692L210.82066666666665,30.80645144230769L211.85399999999998,32.718860336538484L212.88733333333334,28.485755048076925L213.92066666666668,23.714531370192304L214.954,28.066428124999987L215.98733333333334,65.34677379807692L217.02066666666667,20.649465504807694L218.054,25.907589783653833L219.08733333333333,26.553984375L220.12066666666666,28.817397716346136L221.154,24.05210024038462L222.18733333333333,26.15883293269232L223.22066666666666,24.54866033653846L224.254,16.59062692307691L225.28733333333332,34.27499110576923L226.32066666666665,21.76288545673077" style="fill: none;" fill="none"></path></g></g></g></g></g></g><g transform="translate(82, 178)" clip-path="url(#clip_1)"><clipPath id="clip_1"><rect width="248" height="22"></rect></clipPath><g><g><line x1="0" y1="0" x2="0" y2="5" style="visibility: inherit;" fill="rgb(0, 0, 0)" stroke="rgb(204, 204, 204)" stroke-width="1px"></line><line x1="20.666666666666664" y1="0" x2="20.666666666666664" y2="5" style="visibility: inherit;" fill="rgb(0, 0, 0)" stroke="rgb(204, 204, 204)" stroke-width="1px"></line><line x1="41.33333333333333" y1="0" x2="41.33333333333333" y2="5" style="visibility: inherit;" fill="rgb(0, 0, 0)" stroke="rgb(204, 204, 204)" stroke-width="1px"></line><line x1="62" y1="0" x2="62" y2="5" style="visibility: inherit;" fill="rgb(0, 0, 0)" stroke="rgb(204, 204, 204)" stroke-width="1px"></line><line x1="82.66666666666666" y1="0" x2="82.66666666666666" y2="5" style="visibility: inherit;" fill="rgb(0, 0, 0)" stroke="rgb(204, 204, 204)" stroke-width="1px"></line><line x1="103.33333333333334" y1="0" x2="103.33333333333334" y2="5" style="visibility: inherit;" fill="rgb(0, 0, 0)" stroke="rgb(204, 204, 204)" stroke-width="1px"></line><line x1="124" y1="0" x2="124" y2="5" style="visibility: inherit;" fill="rgb(0, 0, 0)" stroke="rgb(204, 204, 204)" stroke-width="1px"></line><line x1="144.66666666666669" y1="0" x2="144.66666666666669" y2="5" style="visibility: inherit;" fill="rgb(0, 0, 0)" stroke="rgb(204, 204, 204)" stroke-width="1px"></line><line x1="165.33333333333331" y1="0" x2="165.33333333333331" y2="5" style="visibility: inherit;" fill="rgb(0, 0, 0)" stroke="rgb(204, 204, 204)" stroke-width="1px"></line><line x1="186" y1="0" x2="186" y2="5" style="visibility: inherit;" fill="rgb(0, 0, 0)" stroke="rgb(204, 204, 204)" stroke-width="1px"></line><line x1="206.66666666666669" y1="0" x2="206.66666666666669" y2="5" style="visibility: inherit;" fill="rgb(0, 0, 0)" stroke="rgb(204, 204, 204)" stroke-width="1px"></line><line x1="227.33333333333331" y1="0" x2="227.33333333333331" y2="5" style="visibility: inherit;" fill="rgb(0, 0, 0)" stroke="rgb(204, 204, 204)" stroke-width="1px"></line><line x1="248" y1="0" x2="248" y2="5" style="visibility: inherit;" fill="rgb(0, 0, 0)" stroke="rgb(204, 204, 204)" stroke-width="1px"></line></g><g transform="translate(0, 8)"><text x="0" y="0" dx="0em" dy="0.95em" style="text-anchor: middle; visibility: hidden; font-family: &quot;Helvetica Neue&quot;, sans-serif; font-size: 12px; font-weight: 200;" fill="rgb(50, 49, 63)" stroke="none" stroke-width="1px">-1k</text><text x="20.666666666666664" y="0" dx="0em" dy="0.95em" style="text-anchor: middle; visibility: inherit; font-family: &quot;Helvetica Neue&quot;, sans-serif; font-size: 12px; font-weight: 200;" fill="rgb(50, 49, 63)" stroke="none" stroke-width="1px">0</text><text x="41.33333333333333" y="0" dx="0em" dy="0.95em" style="text-anchor: middle; visibility: hidden; font-family: &quot;Helvetica Neue&quot;, sans-serif; font-size: 12px; font-weight: 200;" fill="rgb(50, 49, 63)" stroke="none" stroke-width="1px">1k</text><text x="62" y="0" dx="0em" dy="0.95em" style="text-anchor: middle; visibility: inherit; font-family: &quot;Helvetica Neue&quot;, sans-serif; font-size: 12px; font-weight: 200;" fill="rgb(50, 49, 63)" stroke="none" stroke-width="1px">2k</text><text x="82.66666666666666" y="0" dx="0em" dy="0.95em" style="text-anchor: middle; visibility: hidden; font-family: &quot;Helvetica Neue&quot;, sans-serif; font-size: 12px; font-weight: 200;" fill="rgb(50, 49, 63)" stroke="none" stroke-width="1px">3k</text><text x="103.33333333333334" y="0" dx="0em" dy="0.95em" style="text-anchor: middle; visibility: inherit; font-family: &quot;Helvetica Neue&quot;, sans-serif; font-size: 12px; font-weight: 200;" fill="rgb(50, 49, 63)" stroke="none" stroke-width="1px">4k</text><text x="124" y="0" dx="0em" dy="0.95em" style="text-anchor: middle; visibility: hidden; font-family: &quot;Helvetica Neue&quot;, sans-serif; font-size: 12px; font-weight: 200;" fill="rgb(50, 49, 63)" stroke="none" stroke-width="1px">5k</text><text x="144.66666666666669" y="0" dx="0em" dy="0.95em" style="text-anchor: middle; visibility: inherit; font-family: &quot;Helvetica Neue&quot;, sans-serif; font-size: 12px; font-weight: 200;" fill="rgb(50, 49, 63)" stroke="none" stroke-width="1px">6k</text><text x="165.33333333333331" y="0" dx="0em" dy="0.95em" style="text-anchor: middle; visibility: hidden; font-family: &quot;Helvetica Neue&quot;, sans-serif; font-size: 12px; font-weight: 200;" fill="rgb(50, 49, 63)" stroke="none" stroke-width="1px">7k</text><text x="186" y="0" dx="0em" dy="0.95em" style="text-anchor: middle; visibility: inherit; font-family: &quot;Helvetica Neue&quot;, sans-serif; font-size: 12px; font-weight: 200;" fill="rgb(50, 49, 63)" stroke="none" stroke-width="1px">8k</text><text x="206.66666666666669" y="0" dx="0em" dy="0.95em" style="text-anchor: middle; visibility: hidden; font-family: &quot;Helvetica Neue&quot;, sans-serif; font-size: 12px; font-weight: 200;" fill="rgb(50, 49, 63)" stroke="none" stroke-width="1px">9k</text><text x="227.33333333333331" y="0" dx="0em" dy="0.95em" style="text-anchor: middle; visibility: inherit; font-family: &quot;Helvetica Neue&quot;, sans-serif; font-size: 12px; font-weight: 200;" fill="rgb(50, 49, 63)" stroke="none" stroke-width="1px">10k</text><text x="248" y="0" dx="0em" dy="0.95em" style="text-anchor: middle; visibility: hidden; font-family: &quot;Helvetica Neue&quot;, sans-serif; font-size: 12px; font-weight: 200;" fill="rgb(50, 49, 63)" stroke="none" stroke-width="1px">11k</text></g><line x1="0" y1="0" x2="248" y2="0" fill="rgb(0, 0, 0)" stroke="rgb(204, 204, 204)" stroke-width="1px"></line></g></g></g></g></svg>